<svg width="17" height="16" viewBox="0 0 17 16" fill="none" xmlns="http://www.w3.org/2000/svg">
<g id="16px / ios">
<g id="i">
<path id="Vector" d="M14.2154 10.9413C13.3145 10.6006 12.7119 9.7826 12.6439 8.80701C12.5773 7.85633 13.0432 7.01202 13.8902 6.54813L14.5944 6.16234L14.0915 5.53618C13.2465 4.48383 12.0373 3.85498 10.857 3.85498C10.039 3.85498 9.47139 4.06909 9.01557 4.24145C8.69374 4.36331 8.43991 4.45892 8.16117 4.45892C7.84338 4.45892 7.52963 4.34715 7.16605 4.21788C6.68937 4.04821 6.14939 3.85565 5.4559 3.85565C4.11606 3.85565 2.76477 4.65552 1.9299 5.9415C0.683643 7.85969 1.02567 11.1487 2.74323 13.7624C3.42392 14.7979 4.37797 15.9876 5.72926 15.9997C5.73801 15.9997 5.74676 15.9997 5.75552 15.9997C6.86173 15.9997 7.10411 15.4099 8.178 15.4032C9.35087 15.4584 9.49899 16.0045 10.5944 15.997C11.9147 15.9849 12.8668 14.8047 13.6236 13.6513C14.0706 12.9733 14.2436 12.6185 14.5917 11.8482L14.8866 11.1952L14.2154 10.9413Z" fill="white"/>
<path id="Vector_2" d="M10.0046 2.1637C10.4423 1.60218 10.7742 0.80972 10.6537 -0.000244141C9.93865 0.0489058 9.10377 0.503375 8.61564 1.09587C8.17261 1.63382 7.80702 2.431 7.94908 3.20662C8.72875 3.23086 9.53602 2.76495 10.0046 2.1637Z" fill="white"/>
</g>
</g>
</svg>
