<svg width="400" height="428" viewBox="0 0 400 428" fill="none" xmlns="http://www.w3.org/2000/svg">
<path fill-rule="evenodd" clip-rule="evenodd" d="M7.54564 164.966C36.5425 51.9692 145.779 -19.7455 250.807 5.49148C359.657 31.7529 422.926 149.275 391.442 265.341C366.369 358.915 287.582 422.604 201.728 427.128C201.589 401.36 217.143 377.723 240.283 369.259C255.025 363.941 268.268 357.529 279.53 350.864L276.068 359.481C274.088 364.484 275.691 370.447 280.109 372.599C284.85 374.976 290.512 372.482 292.682 367.253L307.732 330.2C313.712 324.609 318.085 319.279 320.783 314.468C324.993 306.881 323.644 301.402 320.94 297.634L328.017 280.301L329.146 279.912C340.895 275.729 350.56 266.421 355.502 254.189L369.207 210.689C370.122 207.752 368.509 204.692 365.572 204.182C363.268 203.702 361.042 205.319 360.146 207.708L345.29 247.856C344.464 249.986 342.291 250.926 340.329 250.123C338.367 249.321 337.572 247.033 338.399 244.903L354.04 204.688C354.971 202.171 353.955 199.27 351.55 198.211L351.191 198.115L350.833 198.019C348.428 196.959 345.674 198.158 344.589 200.772L327.907 240.57C327.08 242.7 324.907 243.639 322.946 242.837C320.984 242.035 320.188 239.746 321.015 237.616L338.345 198.269C339.618 195.429 338.398 192.335 335.719 191.341C333.399 190.442 330.849 191.834 329.714 194.158L309.546 234.543C304.638 246.647 304.918 260.417 310.432 271.855L311.027 272.982L300.453 299.061C298.491 298.259 296.457 298.682 294.517 301.621C293.024 303.849 292.757 307.236 292.798 310.428C266.702 334.7 230.423 343.931 206.547 347.493C203.488 347.918 200.951 345.44 200.91 342.248C200.85 339.603 202.617 337.31 204.959 336.692C243.546 326.973 278.876 289.268 292.675 237.769C311.004 169.363 284.263 102.852 233.009 89.1186C181.754 75.385 125.341 119.615 107.011 188.021C93.2469 239.39 105.075 289.87 133.513 317.549C135.233 319.255 135.617 322.124 134.243 324.384C132.611 327.129 129.209 327.877 126.773 325.979C107.468 310.57 80.2056 283.76 70.223 248.853C71.4429 246.69 72.3735 244.172 72.1754 242.044C71.8799 238.368 70.1758 237.082 67.9215 236.893L72.1123 208.827L84.7954 201.158C84.7954 201.158 92.1051 170.055 89.2973 140.391C88.2565 129.46 84.1723 119.374 78.0162 110.808C76.2649 108.263 72.3663 109.432 71.7752 112.594L54.0465 206.476L51.0252 226.832C47.6014 229.096 44.8378 233.197 44.797 240.518C44.7152 244.646 45.4164 249.676 46.7307 255.285L40.1819 299.319C39.3613 304.771 42.6595 309.666 47.7308 310.334C52.8022 311.001 57.512 307.283 58.3326 301.831L60.2535 288.927C66.8246 301.201 75.5621 314.471 86.5381 327.51C102.431 346.571 104.56 374.946 91.3678 397.419C20.0445 351.056 -16.2951 257.764 7.54564 164.966ZM191.235 301.89C191.235 301.89 194.866 230.514 264.243 239.696C264.24 239.691 264.232 239.789 264.215 239.983C263.778 245.169 257.573 318.732 191.235 301.89ZM163.637 294.495C163.637 294.495 196.18 230.866 131.507 204.13C131.541 204.001 95.3003 275.216 163.637 294.495Z" fill="#220F58"/>
</svg>
